<svg id="Johnson_Matthey_Logo_Blue_" data-name="Johnson Matthey Logo (Blue)" xmlns="http://www.w3.org/2000/svg" viewBox="0 0 430 52.048">
  <defs>
    <style>
      .cls-2{fill:#1e22aa}
    </style>
  </defs>
  <g id="JM_Logo" data-name="JM Logo" style="isolation:isolate">
    <path id="Path_287" data-name="Path 287" class="cls-2" d="M-99.06-183.946h7.815v27.46c-.182 10.818-8.619 19.606-19.214 19.606a18.958 18.958 0 0 1-12.912-5.086 19.645 19.645 0 0 1-5.537-9.027l7.507-2.208a11.4 11.4 0 0 0 10.941 8.345 11.529 11.529 0 0 0 11.4-11.631Zm44.135 37.938-20.659-37.938h-7.846v46.326h7.846v-29.959l16.295 29.959h8.729l16.295-29.959v29.959h7.846v-46.326h-7.846Z" transform="translate(128.907 185.156)"/>
    <g id="Group_204" data-name="Group 204" transform="translate(125.184)">
      <path id="Path_288" data-name="Path 288" class="cls-2" d="M189.275-161.186a8.85 8.85 0 0 0-2.417-6.574q-2.5-2.5-7.166-2.5-6.558 0-8.784 4.348a10.261 10.261 0 0 0-1.078 4.748 10.746 10.746 0 0 0 .5 3.287 7.643 7.643 0 0 0 1.913 3.253q2.487 2.5 7.305 2.5t7.305-2.5a8.862 8.862 0 0 0 2.417-6.557m-4.14 0a6.412 6.412 0 0 1-1.165 4.018 5.25 5.25 0 0 1-4.417 1.809 5.221 5.221 0 0 1-4.418-1.809 6.412 6.412 0 0 1-1.165-4.018 6.442 6.442 0 0 1 1.165-4.035 5.378 5.378 0 0 1 4.522-1.809 5.127 5.127 0 0 1 4.313 1.809 6.442 6.442 0 0 1 1.165 4.035" transform="translate(-146.689 178.496)"/>
      <path id="Path_289" data-name="Path 289" class="cls-2" d="M218.951-160.744v-11.044a7.538 7.538 0 0 1 2.174-1.9 7.732 7.732 0 0 1 4.035-1.357 3 3 0 0 1 2.713 1.078 5.5 5.5 0 0 1 .5 2.766v10.453h4.052v-10.8a10.263 10.263 0 0 0-.678-4.4q-1.27-2.435-5.653-2.435a11.353 11.353 0 0 0-7.149 2.592v-10.594l-4.053 1.165v24.474Z" transform="translate(-168.115 186.383)"/>
      <path id="Path_290" data-name="Path 290" class="cls-2" d="M261.388-152.629v-11.044a7.814 7.814 0 0 1 2.209-1.878 7.8 7.8 0 0 1 4.035-1.374 2.979 2.979 0 0 1 2.678 1.078 5.391 5.391 0 0 1 .5 2.748v10.47h4.053v-10.8a10.192 10.192 0 0 0-.678-4.4q-1.27-2.435-5.635-2.435a10.754 10.754 0 0 0-7.392 2.9v-2.4h-3.826v17.132Z" transform="translate(-188.895 178.493)"/>
      <path id="Path_291" data-name="Path 291" class="cls-2" d="M305.783-152.124q8.053 0 8.053-5.374a4.47 4.47 0 0 0-.487-2.174 4.656 4.656 0 0 0-1.739-1.67 36.032 36.032 0 0 0-5.9-2.192 5.308 5.308 0 0 1-1.792-.817 1.234 1.234 0 0 1-.452-.957q0-1.722 3.183-1.722a13.953 13.953 0 0 1 5.044.956l.852-3.356a22.3 22.3 0 0 0-6.122-.835 9.528 9.528 0 0 0-5.123 1.165 4.208 4.208 0 0 0-1.965 3.809 3.8 3.8 0 0 0 1.583 3.3 17.4 17.4 0 0 0 4.609 2.053l2.279.73a4.679 4.679 0 0 1 1.3.609 1.3 1.3 0 0 1 .591 1.148q0 2.087-4 2.087a13.781 13.781 0 0 1-6.209-1.479l-1.044 3.479a19.107 19.107 0 0 0 7.34 1.235" transform="translate(-209.044 178.496)"/>
      <path id="Path_292" data-name="Path 292" class="cls-2" d="M353.885-161.186a8.848 8.848 0 0 0-2.417-6.574q-2.5-2.5-7.166-2.5-6.557 0-8.783 4.348a10.261 10.261 0 0 0-1.078 4.748 10.75 10.75 0 0 0 .5 3.287 7.65 7.65 0 0 0 1.914 3.253q2.487 2.5 7.3 2.5t7.305-2.5a8.86 8.86 0 0 0 2.417-6.557m-4.139 0a6.415 6.415 0 0 1-1.165 4.018 5.251 5.251 0 0 1-4.418 1.809 5.222 5.222 0 0 1-4.418-1.809 6.413 6.413 0 0 1-1.165-4.018 6.442 6.442 0 0 1 1.165-4.035 5.38 5.38 0 0 1 4.522-1.809 5.129 5.129 0 0 1 4.314 1.809 6.445 6.445 0 0 1 1.165 4.035" transform="translate(-226.632 178.496)"/>
      <path id="Path_293" data-name="Path 293" class="cls-2" d="M383.666-152.629v-11.044a7.814 7.814 0 0 1 2.209-1.878 7.8 7.8 0 0 1 4.035-1.374 2.979 2.979 0 0 1 2.678 1.078 5.389 5.389 0 0 1 .5 2.748v10.47h4.053v-10.8a10.191 10.191 0 0 0-.678-4.4q-1.27-2.435-5.635-2.435a10.754 10.754 0 0 0-7.392 2.9v-2.4h-3.826v17.132Z" transform="translate(-248.773 178.493)"/>
      <path id="Path_294" data-name="Path 294" class="cls-2" d="M443.732-159.56v-17.463l8.349 17.463h2.7l8.348-17.463v17.463h4.053v-24.472h-4.522l-9.218 19.271-9.242-19.271h-4.52v24.472Z" transform="translate(-278.025 185.199)"/>
      <path id="Path_295" data-name="Path 295" class="cls-2" d="M518.482-152.628v-10.436q0-1.513-.034-2.052a5.806 5.806 0 0 0-.7-2.592q-1.6-2.557-7.079-2.557a22.829 22.829 0 0 0-3.722.3 27.805 27.805 0 0 0-3.078.783l-.887.261.991 3.3a15.711 15.711 0 0 1 6.209-1.409 5.431 5.431 0 0 1 3.426.8 2.475 2.475 0 0 1 .748 1.983v.661q-2.087.052-3.252.122-4.853.3-6.957 1.513a5.024 5.024 0 0 0-2.609 4.661q0 5.166 6.5 5.166 4.661 0 6.679-2.3v1.792Zm-4.052-6.088a2.981 2.981 0 0 1-.1.922 2.768 2.768 0 0 1-.974 1.217 7.075 7.075 0 0 1-4.331 1.218q-3.357 0-3.357-2.192 0-2.209 3.809-2.731 1.548-.209 4.957-.313Z" transform="translate(-308.491 178.496)"/>
      <path id="Path_296" data-name="Path 296" class="cls-2" d="M543.9-162.965a12.84 12.84 0 0 0 .244 2.731 3.544 3.544 0 0 0 1.67 2.452 7.249 7.249 0 0 0 3.392.609 18.4 18.4 0 0 0 4.4-.557l-.748-3.13a7.284 7.284 0 0 1-2.557.452q-1.774 0-2.122-.922a10.377 10.377 0 0 1-.226-2.783v-7.461h4.957v-3.235h-4.957v-5.484l-4.053 1.148v4.336h-3.13v3.235h3.13Z" transform="translate(-327.783 183.317)"/>
      <path id="Path_297" data-name="Path 297" class="cls-2" d="M572.776-162.965a12.82 12.82 0 0 0 .244 2.731 3.544 3.544 0 0 0 1.67 2.452 7.25 7.25 0 0 0 3.392.609 18.4 18.4 0 0 0 4.4-.557l-.748-3.13a7.285 7.285 0 0 1-2.556.452q-1.774 0-2.122-.922a10.381 10.381 0 0 1-.227-2.783v-7.461h4.958v-3.235h-4.958v-5.484l-4.052 1.148v4.336h-3.13v3.235h3.13Z" transform="translate(-341.931 183.317)"/>
      <path id="Path_298" data-name="Path 298" class="cls-2" d="M605.12-160.744v-11.044a7.539 7.539 0 0 1 2.174-1.9 7.732 7.732 0 0 1 4.035-1.357 3 3 0 0 1 2.713 1.078 5.5 5.5 0 0 1 .5 2.766v10.453h4.058v-10.8a10.271 10.271 0 0 0-.678-4.4q-1.271-2.435-5.653-2.435a11.353 11.353 0 0 0-7.149 2.592v-10.594l-4.053 1.165v24.474Z" transform="translate(-356.04 186.383)"/>
      <path id="Path_299" data-name="Path 299" class="cls-2" d="M660.49-162.073a8.985 8.985 0 0 0-1.183-4.8q-2.1-3.392-7.548-3.392-4.8 0-7.1 2.661a9.823 9.823 0 0 0-2.122 6.627q0 5.966 4.557 7.949a14.332 14.332 0 0 0 5.6.9 20.954 20.954 0 0 0 7.514-1.3l-1.2-3.148a15.977 15.977 0 0 1-2.087.766 13.224 13.224 0 0 1-3.6.452q-4.244 0-5.758-1.948a4.556 4.556 0 0 1-.9-2.7h13.723q.1-1.531.1-2.07m-3.774-.922h-10.066a5.841 5.841 0 0 1 .5-1.948q1.061-2.122 4.539-2.122 3.218 0 4.365 1.826a5.672 5.672 0 0 1 .661 2.244" transform="translate(-376.922 178.496)"/>
      <path id="Path_300" data-name="Path 300" class="cls-2" d="m696.889-169.249-5.879 12.993-5.357-12.993h-4.488l7.619 17.132-3.525 6.6h4.433l11.494-23.731Z" transform="translate(-396.369 178.049)"/>
      <path id="Path_301" data-name="Path 301" class="cls-2" d="M133.082-159.07a10.261 10.261 0 0 1-7.241-2.938 9.967 9.967 0 0 1-2.618-4.39l3.888-1.114a5.95 5.95 0 0 0 1.564 2.622 6.242 6.242 0 0 0 4.407 1.779 6.252 6.252 0 0 0 4.413-1.577 6.663 6.663 0 0 0 1.848-4.783v-14.558h4.042v14.629a10.6 10.6 0 0 1-3.106 7.636 10.2 10.2 0 0 1-7.2 2.689" transform="translate(-123.223 185.199)"/>
      <path id="Path_302" data-name="Path 302" class="cls-2" d="M653.556-106.281v-13.586l-1.749.493v13.093Z" transform="translate(-381.587 153.834)"/>
      <path id="Rectangle_94" data-name="Rectangle 94" class="cls-2" transform="translate(274.809 38.387)" d="M0 0h1.749v9.166H0z"/>
      <path id="Path_303" data-name="Path 303" class="cls-2" d="M660.8-118.145a1 1 0 0 0-.391.8 1 1 0 0 0 .307.735 1.173 1.173 0 0 0 .875.363 1.186 1.186 0 0 0 .782-.279 1 1 0 0 0 .391-.81 1.02 1.02 0 0 0-.3-.735 1.169 1.169 0 0 0-.857-.354 1.222 1.222 0 0 0-.809.279" transform="translate(-385.92 152.815)"/>
      <path id="Path_304" data-name="Path 304" class="cls-2" d="M674.874-114.221v-1.405h-2.894v-1.126a3.054 3.054 0 0 1 .26-1.461 1.546 1.546 0 0 1 1.443-.6 5.237 5.237 0 0 1 1.331.2l.335-1.349a7.526 7.526 0 0 0-1.879-.251 3.084 3.084 0 0 0-2.633 1.052 4.059 4.059 0 0 0-.605 2.466v1.08h-1.982v1.405h1.982v7.761h1.75v-7.761Z" transform="translate(-389.865 154.013)"/>
      <path id="Path_305" data-name="Path 305" class="cls-2" d="M692.574-107.1a4.9 4.9 0 0 0-.586-2.485 4.241 4.241 0 0 0-4-1.926 4.6 4.6 0 0 0-3.657 1.4 5.2 5.2 0 0 0-1.135 3.527 4.621 4.621 0 0 0 1.3 3.546 5.642 5.642 0 0 0 3.983 1.237 9.106 9.106 0 0 0 3.909-.819l-.634-1.38a6.1 6.1 0 0 1-2.968.791 5.725 5.725 0 0 1-2.1-.316 2.517 2.517 0 0 1-1.238-1.033 3.223 3.223 0 0 1-.465-1.694h7.547q.046-.558.047-.847m-1.694-.475H685a4.2 4.2 0 0 1 .3-1.172 2.714 2.714 0 0 1 2.7-1.366 2.642 2.642 0 0 1 2.484 1.182 3.617 3.617 0 0 1 .391 1.358" transform="translate(-397.39 149.625)"/>
      <path id="Rectangle_95" data-name="Rectangle 95" class="cls-2" transform="translate(44.419 38.387)" d="M0 0h1.749v9.166H0z"/>
      <path id="Path_306" data-name="Path 306" class="cls-2" d="M212.44-118.145a1 1 0 0 0-.391.8 1 1 0 0 0 .307.735 1.173 1.173 0 0 0 .875.363 1.186 1.186 0 0 0 .782-.279 1 1 0 0 0 .391-.81 1.019 1.019 0 0 0-.3-.735 1.167 1.167 0 0 0-.856-.354 1.221 1.221 0 0 0-.809.279" transform="translate(-167.946 152.815)"/>
      <path id="Rectangle_96" data-name="Rectangle 96" class="cls-2" transform="translate(56.918 38.387)" d="M0 0h1.749v9.166H0z"/>
      <path id="Path_307" data-name="Path 307" class="cls-2" d="M237.614-118.145a1 1 0 0 0-.391.8 1 1 0 0 0 .307.735 1.173 1.173 0 0 0 .875.363 1.185 1.185 0 0 0 .781-.279 1 1 0 0 0 .391-.81 1.019 1.019 0 0 0-.3-.735 1.166 1.166 0 0 0-.856-.354 1.222 1.222 0 0 0-.809.279" transform="translate(-180.621 152.815)"/>
      <path id="Rectangle_97" data-name="Rectangle 97" class="cls-2" transform="translate(111.578 38.387)" d="M0 0h1.749v9.166H0z"/>
      <path id="Path_308" data-name="Path 308" class="cls-2" d="M341.939-118.145a1 1 0 0 0-.391.8 1 1 0 0 0 .307.735 1.174 1.174 0 0 0 .875.363 1.188 1.188 0 0 0 .782-.279 1 1 0 0 0 .39-.81 1.019 1.019 0 0 0-.3-.735 1.168 1.168 0 0 0-.857-.354 1.222 1.222 0 0 0-.809.279" transform="translate(-230.288 152.815)"/>
      <path id="Rectangle_98" data-name="Rectangle 98" class="cls-2" transform="translate(236.825 38.387)" d="M0 0h1.749v9.166H0z"/>
      <path id="Path_309" data-name="Path 309" class="cls-2" d="M587.724-118.145a1 1 0 0 0-.391.8 1 1 0 0 0 .307.735 1.173 1.173 0 0 0 .875.363 1.187 1.187 0 0 0 .782-.279 1 1 0 0 0 .39-.81 1.019 1.019 0 0 0-.3-.735 1.168 1.168 0 0 0-.856-.354 1.224 1.224 0 0 0-.81.279" transform="translate(-350.82 152.815)"/>
      <path id="Rectangle_99" data-name="Rectangle 99" class="cls-2" transform="translate(7.766 34.46)" d="M0 0h1.796v13.093H0z"/>
      <path id="Path_310" data-name="Path 310" class="cls-2" d="M149.346-102.072v-6.17a5.425 5.425 0 0 1 1.34-1.07 4.67 4.67 0 0 1 2.364-.754 1.816 1.816 0 0 1 1.572.586 2.823 2.823 0 0 1 .307 1.545v5.863h1.75v-5.76a10.028 10.028 0 0 0-.084-1.461 2.209 2.209 0 0 0-1.107-1.768 4.436 4.436 0 0 0-2.1-.447 6.372 6.372 0 0 0-4.132 1.647v-1.377H147.6v9.166Z" transform="translate(-135.495 149.625)"/>
      <path id="Path_311" data-name="Path 311" class="cls-2" d="M173.09-101.8q4.094 0 4.094-2.847a2.05 2.05 0 0 0-.8-1.768 8.037 8.037 0 0 0-2.187-1l-1.293-.437a3.577 3.577 0 0 1-.819-.372.827.827 0 0 1-.419-.744q0-1.126 1.861-1.126a6.382 6.382 0 0 1 2.606.568l.475-1.452a9.391 9.391 0 0 0-3.126-.521 4.742 4.742 0 0 0-2.6.6 2.163 2.163 0 0 0-.987 1.945 1.972 1.972 0 0 0 .838 1.712 9.806 9.806 0 0 0 2.4 1.07q.912.3 1.238.409a2.179 2.179 0 0 1 .726.419.962.962 0 0 1 .307.763q0 1.378-2.327 1.377a6.05 6.05 0 0 1-3.136-.819l-.577 1.517a8.512 8.512 0 0 0 3.722.707" transform="translate(-146.457 149.625)"/>
      <path id="Path_312" data-name="Path 312" class="cls-2" d="M198.642-106.939a5.187 5.187 0 0 0-.847-3.118 3.854 3.854 0 0 0-3.322-1.452 5 5 0 0 0-2.531.614 5.26 5.26 0 0 0-.986.744v-1.089h-1.647v13.661l1.75-.494v-4.215a5.907 5.907 0 0 0 2.587.484 4.765 4.765 0 0 0 3.881-1.573 5.388 5.388 0 0 0 1.117-3.564m-1.787-.037a4.349 4.349 0 0 1-.735 2.587 3.144 3.144 0 0 1-2.745 1.182 4.522 4.522 0 0 1-2.317-.549v-3.619a2.642 2.642 0 0 1 .186-1.108 2.691 2.691 0 0 1 1.154-1.172 3.508 3.508 0 0 1 1.74-.447 2.459 2.459 0 0 1 2.057.875 3.539 3.539 0 0 1 .66 2.252" transform="translate(-156.496 149.625)"/>
      <path id="Path_313" data-name="Path 313" class="cls-2" d="M223.081-101.874v-5.891a6.588 6.588 0 0 1 2.159-1.415 6.025 6.025 0 0 1 2.215-.465l.074-1.47a7.05 7.05 0 0 0-2.3.4 8.244 8.244 0 0 0-2.229 1.322v-1.647h-1.666v9.166Z" transform="translate(-172.62 149.427)"/>
      <path id="Path_314" data-name="Path 314" class="cls-2" d="M248.265-102.072v-6.17a5.419 5.419 0 0 1 1.34-1.07 4.668 4.668 0 0 1 2.363-.754 1.817 1.817 0 0 1 1.573.586 2.828 2.828 0 0 1 .307 1.545v5.863h1.752v-5.76a10.04 10.04 0 0 0-.083-1.461 2.208 2.208 0 0 0-1.107-1.768 4.436 4.436 0 0 0-2.1-.447 6.373 6.373 0 0 0-4.132 1.647v-1.377h-1.656v9.166Z" transform="translate(-183.647 149.625)"/>
      <path id="Path_315" data-name="Path 315" class="cls-2" d="M277.912-103.738v-7.184a16 16 0 0 0-3.936-.586 4.938 4.938 0 0 0-4.132 1.666 5.731 5.731 0 0 0-1.126 3.666 4.856 4.856 0 0 0 .847 3.006 3.811 3.811 0 0 0 3.266 1.368 4.711 4.711 0 0 0 3.332-1.293v.447a5.655 5.655 0 0 1-.391 2.475q-.577 1.107-2.661 1.108a8.412 8.412 0 0 1-2.959-.5l-.512 1.443a13.039 13.039 0 0 0 3.536.465 6.789 6.789 0 0 0 2.447-.372 2.981 2.981 0 0 0 1.935-1.917 14.177 14.177 0 0 0 .354-3.787m-1.75-2.2a3.774 3.774 0 0 1-.056.763 2.271 2.271 0 0 1-.521.94 3.188 3.188 0 0 1-2.494 1.023q-2.587 0-2.587-3.015a4.329 4.329 0 0 1 .828-2.773 3.124 3.124 0 0 1 2.6-1.108 8.2 8.2 0 0 1 2.233.335Z" transform="translate(-194.528 149.625)"/>
      <path id="Path_316" data-name="Path 316" class="cls-2" d="M305.932-101.8q4.095 0 4.095-2.847a2.049 2.049 0 0 0-.8-1.768 8.033 8.033 0 0 0-2.187-1l-1.294-.437a3.575 3.575 0 0 1-.819-.372.827.827 0 0 1-.419-.744q0-1.126 1.861-1.126a6.383 6.383 0 0 1 2.606.568l.475-1.452a9.391 9.391 0 0 0-3.126-.521 4.745 4.745 0 0 0-2.6.6 2.163 2.163 0 0 0-.986 1.945 1.971 1.971 0 0 0 .838 1.712 9.806 9.806 0 0 0 2.4 1.07q.912.3 1.238.409a2.177 2.177 0 0 1 .726.419.961.961 0 0 1 .307.763q0 1.378-2.326 1.377a6.05 6.05 0 0 1-3.136-.819l-.577 1.517a8.514 8.514 0 0 0 3.722.707" transform="translate(-210.953 149.625)"/>
      <path id="Path_317" data-name="Path 317" class="cls-2" d="M326.2-103.207a3.286 3.286 0 0 1-2.69-1.061 3.514 3.514 0 0 1-.744-2.327 3.621 3.621 0 0 1 .931-2.633 3.219 3.219 0 0 1 2.41-.875 5.811 5.811 0 0 1 2.69.67l.5-1.443a8.247 8.247 0 0 0-3.257-.633 5.216 5.216 0 0 0-3.508 1.079 4.873 4.873 0 0 0-1.554 3.918 4.663 4.663 0 0 0 1.21 3.434 5.086 5.086 0 0 0 3.778 1.275 7.545 7.545 0 0 0 3.537-.781l-.6-1.415a5.245 5.245 0 0 1-2.708.791" transform="translate(-220.146 149.625)"/>
      <path id="Path_318" data-name="Path 318" class="cls-2" d="M359.136-107.1a4.894 4.894 0 0 0-.586-2.485 4.241 4.241 0 0 0-4-1.926 4.6 4.6 0 0 0-3.657 1.4 5.206 5.206 0 0 0-1.136 3.527 4.622 4.622 0 0 0 1.3 3.546 5.642 5.642 0 0 0 3.983 1.237 9.108 9.108 0 0 0 3.909-.819l-.632-1.38a6.1 6.1 0 0 1-2.968.791 5.724 5.724 0 0 1-2.1-.316 2.516 2.516 0 0 1-1.238-1.033 3.225 3.225 0 0 1-.465-1.694h7.547q.046-.558.047-.847m-1.693-.475h-5.882a4.205 4.205 0 0 1 .3-1.172 2.714 2.714 0 0 1 2.708-1.368 2.642 2.642 0 0 1 2.485 1.182 3.632 3.632 0 0 1 .391 1.358" transform="translate(-234.241 149.625)"/>
      <path id="Path_319" data-name="Path 319" class="cls-2" d="M374.794-102.072v-6.17a5.43 5.43 0 0 1 1.34-1.07 4.669 4.669 0 0 1 2.364-.754 1.816 1.816 0 0 1 1.572.586 2.828 2.828 0 0 1 .307 1.545v5.863h1.749v-5.76a10.034 10.034 0 0 0-.083-1.461 2.209 2.209 0 0 0-1.108-1.768 4.435 4.435 0 0 0-2.1-.447 6.371 6.371 0 0 0-4.131 1.647v-1.377h-1.656v9.166Z" transform="translate(-245.658 149.625)"/>
      <path id="Path_320" data-name="Path 320" class="cls-2" d="M400.354-103.207a3.285 3.285 0 0 1-2.689-1.061 3.514 3.514 0 0 1-.744-2.327 3.619 3.619 0 0 1 .93-2.633 3.218 3.218 0 0 1 2.41-.875 5.812 5.812 0 0 1 2.69.67l.5-1.443a8.249 8.249 0 0 0-3.257-.633 5.217 5.217 0 0 0-3.508 1.079 4.873 4.873 0 0 0-1.554 3.918 4.665 4.665 0 0 0 1.209 3.434 5.087 5.087 0 0 0 3.779 1.275 7.545 7.545 0 0 0 3.536-.781l-.6-1.415a5.245 5.245 0 0 1-2.708.791" transform="translate(-256.491 149.625)"/>
      <path id="Path_321" data-name="Path 321" class="cls-2" d="M423.908-107.1a4.888 4.888 0 0 0-.586-2.485 4.24 4.24 0 0 0-4-1.926 4.6 4.6 0 0 0-3.657 1.4 5.2 5.2 0 0 0-1.136 3.527 4.62 4.62 0 0 0 1.3 3.546 5.641 5.641 0 0 0 3.983 1.237 9.107 9.107 0 0 0 3.908-.819l-.631-1.38a6.1 6.1 0 0 1-2.969.791 5.722 5.722 0 0 1-2.1-.316 2.517 2.517 0 0 1-1.238-1.033 3.224 3.224 0 0 1-.465-1.694h7.547q.046-.558.046-.847m-1.694-.475h-5.881a4.192 4.192 0 0 1 .3-1.172 2.713 2.713 0 0 1 2.708-1.368 2.642 2.642 0 0 1 2.484 1.182 3.62 3.62 0 0 1 .391 1.358" transform="translate(-265.984 149.625)"/>
      <path id="Path_322" data-name="Path 322" class="cls-2" d="m438.626-92.2 1.094-3.738h-1.644l-.566 3.738Z" transform="translate(-277.349 141.786)"/>
      <path id="Path_323" data-name="Path 323" class="cls-2" d="M462.073-107.1a4.893 4.893 0 0 0-.586-2.485 4.241 4.241 0 0 0-4-1.926 4.6 4.6 0 0 0-3.657 1.4 5.2 5.2 0 0 0-1.136 3.527 4.622 4.622 0 0 0 1.3 3.546 5.643 5.643 0 0 0 3.983 1.237 9.107 9.107 0 0 0 3.908-.819l-.631-1.38a6.1 6.1 0 0 1-2.968.791 5.724 5.724 0 0 1-2.1-.316 2.516 2.516 0 0 1-1.238-1.033 3.225 3.225 0 0 1-.465-1.694h7.547q.046-.558.047-.847m-1.694-.475H454.5a4.206 4.206 0 0 1 .3-1.172 2.714 2.714 0 0 1 2.708-1.368 2.642 2.642 0 0 1 2.484 1.182 3.613 3.613 0 0 1 .391 1.358" transform="translate(-284.688 149.625)"/>
      <path id="Path_324" data-name="Path 324" class="cls-2" d="M477.482-102.072v-6.17a5.426 5.426 0 0 1 1.34-1.07 4.668 4.668 0 0 1 2.364-.754 1.816 1.816 0 0 1 1.573.586 2.828 2.828 0 0 1 .307 1.545v5.863h1.749v-5.76a10.047 10.047 0 0 0-.083-1.461 2.208 2.208 0 0 0-1.108-1.768 4.434 4.434 0 0 0-2.1-.447 6.37 6.37 0 0 0-4.132 1.647v-1.377h-1.656v9.166Z" transform="translate(-295.984 149.625)"/>
      <path id="Path_325" data-name="Path 325" class="cls-2" d="M500.889-106.281v-6.17a5.345 5.345 0 0 1 1.33-1.07 4.668 4.668 0 0 1 2.364-.754 1.828 1.828 0 0 1 1.582.586 2.854 2.854 0 0 1 .307 1.545v5.863h1.749v-5.76a10.029 10.029 0 0 0-.083-1.461 2.19 2.19 0 0 0-1.107-1.768 4.493 4.493 0 0 0-2.112-.447 6.457 6.457 0 0 0-4.029 1.526v-5.677l-1.75.493v13.093Z" transform="translate(-307.455 153.834)"/>
      <path id="Path_326" data-name="Path 326" class="cls-2" d="M530.06-102.072v-5.677q0-.81-.018-1.107a3.057 3.057 0 0 0-.354-1.322q-.781-1.33-3.564-1.331a9.586 9.586 0 0 0-2.885.41q-.214.074-1.182.428l.521 1.433a7.509 7.509 0 0 1 3.369-.865 2.814 2.814 0 0 1 1.917.494 1.663 1.663 0 0 1 .418 1.266v.419q-1.089.047-1.619.074a9.708 9.708 0 0 0-3.787.8 2.678 2.678 0 0 0-1.489 2.5q0 2.745 3.388 2.746a4.553 4.553 0 0 0 3.648-1.275v1Zm-1.749-3.053a1.522 1.522 0 0 1-.065.512 1.516 1.516 0 0 1-.559.679 4.177 4.177 0 0 1-2.541.726q-1.973 0-1.973-1.423t2.27-1.75q1.023-.148 2.866-.223Z" transform="translate(-318.366 149.625)"/>
      <path id="Path_327" data-name="Path 327" class="cls-2" d="M545.672-102.072v-6.17a5.419 5.419 0 0 1 1.34-1.07 4.668 4.668 0 0 1 2.363-.754 1.817 1.817 0 0 1 1.573.586 2.829 2.829 0 0 1 .307 1.545v5.863H553v-5.76a10.018 10.018 0 0 0-.084-1.461 2.208 2.208 0 0 0-1.107-1.768 4.437 4.437 0 0 0-2.1-.447 6.373 6.373 0 0 0-4.132 1.647v-1.377h-1.656v9.166Z" transform="translate(-329.403 149.625)"/>
      <path id="Path_328" data-name="Path 328" class="cls-2" d="M571.346-103.207a3.285 3.285 0 0 1-2.689-1.061 3.513 3.513 0 0 1-.744-2.327 3.62 3.62 0 0 1 .93-2.633 3.22 3.22 0 0 1 2.41-.875 5.809 5.809 0 0 1 2.689.67l.5-1.443a8.245 8.245 0 0 0-3.257-.633 5.215 5.215 0 0 0-3.508 1.079 4.872 4.872 0 0 0-1.555 3.918 4.665 4.665 0 0 0 1.21 3.434 5.087 5.087 0 0 0 3.779 1.275 7.545 7.545 0 0 0 3.536-.781l-.6-1.415a5.245 5.245 0 0 1-2.708.791" transform="translate(-340.296 149.625)"/>
      <path id="Path_329" data-name="Path 329" class="cls-2" d="M598.349-102.072v-6.17a5.416 5.416 0 0 1 1.34-1.07 4.666 4.666 0 0 1 2.363-.754 1.817 1.817 0 0 1 1.573.586 2.827 2.827 0 0 1 .307 1.545v5.863h1.75v-5.76a10.007 10.007 0 0 0-.084-1.461 2.208 2.208 0 0 0-1.107-1.768 4.437 4.437 0 0 0-2.1-.447 6.374 6.374 0 0 0-4.132 1.647v-1.377H596.6v9.166Z" transform="translate(-355.219 149.625)"/>
      <path id="Path_330" data-name="Path 330" class="cls-2" d="M628-103.738v-7.184a16 16 0 0 0-3.936-.586 4.938 4.938 0 0 0-4.132 1.666 5.732 5.732 0 0 0-1.126 3.666 4.858 4.858 0 0 0 .847 3.006 3.813 3.813 0 0 0 3.267 1.368 4.71 4.71 0 0 0 3.331-1.293v.447a5.657 5.657 0 0 1-.391 2.475q-.577 1.107-2.661 1.108a8.413 8.413 0 0 1-2.959-.5l-.512 1.443a13.037 13.037 0 0 0 3.536.465 6.79 6.79 0 0 0 2.447-.372 2.98 2.98 0 0 0 1.935-1.917 14.18 14.18 0 0 0 .354-3.787m-1.75-2.2a3.735 3.735 0 0 1-.056.763 2.271 2.271 0 0 1-.521.94 3.188 3.188 0 0 1-2.494 1.023q-2.586 0-2.587-3.015a4.33 4.33 0 0 1 .828-2.773 3.124 3.124 0 0 1 2.6-1.108 8.2 8.2 0 0 1 2.233.335Z" transform="translate(-364.969 149.625)"/>
    </g>
  </g>
</svg>
